<svg width="1896" height="857" viewBox="0 0 1896 857" fill="none" xmlns="http://www.w3.org/2000/svg">
<path d="M0 809C0 825.802 0 834.202 3.2698 840.62C6.14601 846.265 10.7354 850.854 16.3803 853.73C22.7976 857 31.1984 857 48 857H1832.92C1861.32 857 1875.52 857 1883.49 851.059C1890.45 845.881 1894.82 837.949 1895.48 829.306C1896.25 819.39 1888.67 807.384 1873.5 783.37L1481.31 162.329C1476.72 155.055 1474.42 151.417 1471.37 148.659C1468.66 146.215 1465.54 144.284 1462.14 142.961C1458.31 141.468 1454.03 141.043 1445.46 140.193L52.7396 1.99902C34.4632 0.185547 25.3249 -0.721191 18.262 2.28168C12.0579 4.91943 6.92307 9.56995 3.68562 15.4833C0 22.2152 0 31.3983 0 49.7645V809Z" fill="#DAA520"/>
</svg>
